# Blender v2.79 (sub 0) OBJ File: 'Chess_textured.blend'
# www.blender.org
mtllib chessboard_part_black.mtl
o Chessboard_Black_Plane.001
v -0.080000 0.000000 0.080000
v 0.000000 0.000000 0.080000
v -0.080000 0.000000 0.000000
v 0.000000 0.000000 0.000000
v -0.160000 0.000000 0.080000
v -0.160000 0.000000 0.000000
v -0.240000 0.000000 0.080000
v -0.240000 0.000000 0.000000
v -0.320000 0.000000 0.080000
v -0.320000 0.000000 0.000000
v 0.080000 0.000000 0.080000
v 0.080000 0.000000 0.000000
v 0.160000 0.000000 0.080000
v 0.160000 0.000000 0.000000
v 0.240000 0.000000 0.080000
v 0.240000 0.000000 0.000000
v 0.320000 0.000000 0.080000
v 0.320000 0.000000 0.000000
v -0.080000 0.000000 -0.080000
v 0.000000 0.000000 -0.080000
v -0.160000 0.000000 -0.080000
v -0.240000 0.000000 -0.080000
v -0.320000 0.000000 -0.080000
v 0.080000 0.000000 -0.080000
v 0.160000 0.000000 -0.080000
v 0.240000 0.000000 -0.080000
v 0.320000 0.000000 -0.080000
v -0.080000 0.000000 -0.160000
v 0.000000 0.000000 -0.160000
v -0.160000 0.000000 -0.160000
v -0.240000 0.000000 -0.160000
v -0.320000 0.000000 -0.160000
v 0.080000 0.000000 -0.160000
v 0.160000 0.000000 -0.160000
v 0.240000 0.000000 -0.160000
v 0.320000 0.000000 -0.160000
v -0.080000 0.000000 -0.240000
v 0.000000 0.000000 -0.240000
v -0.160000 0.000000 -0.240000
v -0.240000 0.000000 -0.240000
v -0.320000 0.000000 -0.240000
v 0.080000 0.000000 -0.240000
v 0.160000 0.000000 -0.240000
v 0.240000 0.000000 -0.240000
v 0.320000 0.000000 -0.240000
v -0.080000 0.000000 -0.320000
v 0.000000 0.000000 -0.320000
v -0.160000 0.000000 -0.320000
v -0.240000 0.000000 -0.320000
v 0.080000 0.000000 -0.320000
v 0.160000 0.000000 -0.320000
v 0.240000 0.000000 -0.320000
v 0.320000 0.000000 -0.320000
v -0.080000 0.000000 0.160000
v 0.000000 0.000000 0.160000
v -0.160000 0.000000 0.160000
v -0.240000 0.000000 0.160000
v -0.320000 0.000000 0.160000
v 0.080000 0.000000 0.160000
v 0.160000 0.000000 0.160000
v 0.240000 0.000000 0.160000
v 0.320000 0.000000 0.160000
v -0.080000 0.000000 0.240000
v 0.000000 0.000000 0.240000
v -0.160000 0.000000 0.240000
v -0.240000 0.000000 0.240000
v -0.320000 0.000000 0.240000
v 0.080000 0.000000 0.240000
v 0.160000 0.000000 0.240000
v 0.240000 0.000000 0.240000
v 0.320000 0.000000 0.240000
v -0.080000 0.000000 0.320000
v 0.000000 0.000000 0.320000
v -0.160000 0.000000 0.320000
v -0.240000 0.000000 0.320000
v -0.320000 0.000000 0.320000
v 0.080000 0.000000 0.320000
v 0.160000 0.000000 0.320000
v 0.240000 0.000000 0.320000
vt 0.000000 0.000000
vt 1.000000 0.000000
vt 1.000000 1.000000
vt 0.000000 1.000000
vt 0.000000 0.000000
vt 1.000000 0.000000
vt 1.000000 1.000000
vt 0.000000 1.000000
vt 0.000000 0.000000
vt 1.000000 0.000000
vt 1.000000 1.000000
vt 0.000000 1.000000
vt 0.000000 0.000000
vt 1.000000 0.000000
vt 1.000000 1.000000
vt 0.000000 1.000000
vt 0.000000 0.000000
vt 1.000000 0.000000
vt 1.000000 1.000000
vt 0.000000 1.000000
vt 0.000000 0.000000
vt 1.000000 0.000000
vt 1.000000 1.000000
vt 0.000000 1.000000
vt 0.000000 0.000000
vt 1.000000 0.000000
vt 1.000000 1.000000
vt 0.000000 1.000000
vt 0.000000 0.000000
vt 1.000000 0.000000
vt 1.000000 1.000000
vt 0.000000 1.000000
vt 0.000000 0.000000
vt 1.000000 0.000000
vt 1.000000 1.000000
vt 0.000000 1.000000
vt 0.000000 0.000000
vt 1.000000 0.000000
vt 1.000000 1.000000
vt 0.000000 1.000000
vt 0.000000 0.000000
vt 1.000000 0.000000
vt 1.000000 1.000000
vt 0.000000 1.000000
vt 0.000000 0.000000
vt 1.000000 0.000000
vt 1.000000 1.000000
vt 0.000000 1.000000
vt 0.000000 0.000000
vt 1.000000 0.000000
vt 1.000000 1.000000
vt 0.000000 1.000000
vt 0.000000 0.000000
vt 1.000000 0.000000
vt 1.000000 1.000000
vt 0.000000 1.000000
vt 0.000000 0.000000
vt 1.000000 0.000000
vt 1.000000 1.000000
vt 0.000000 1.000000
vt 0.000000 0.000000
vt 1.000000 0.000000
vt 1.000000 1.000000
vt 0.000000 1.000000
vt 0.000000 0.000000
vt 1.000000 0.000000
vt 1.000000 1.000000
vt 0.000000 1.000000
vt 0.000000 0.000000
vt 1.000000 0.000000
vt 1.000000 1.000000
vt 0.000000 1.000000
vt 0.000000 0.000000
vt 1.000000 0.000000
vt 1.000000 1.000000
vt 0.000000 1.000000
vt 0.000000 0.000000
vt 1.000000 0.000000
vt 1.000000 1.000000
vt 0.000000 1.000000
vt 0.000000 0.000000
vt 1.000000 0.000000
vt 1.000000 1.000000
vt 0.000000 1.000000
vt 1.000000 0.000000
vt 1.000000 1.000000
vt 0.000000 1.000000
vt 0.000000 0.000000
vt 1.000000 0.000000
vt 1.000000 1.000000
vt 0.000000 1.000000
vt 0.000000 0.000000
vt 1.000000 1.000000
vt 0.000000 1.000000
vt 0.000000 0.000000
vt 1.000000 0.000000
vt 1.000000 1.000000
vt 0.000000 1.000000
vt 0.000000 0.000000
vt 1.000000 0.000000
vt 1.000000 1.000000
vt 0.000000 1.000000
vt 0.000000 0.000000
vt 1.000000 0.000000
vt 1.000000 1.000000
vt 0.000000 1.000000
vt 0.000000 0.000000
vt 1.000000 0.000000
vt 1.000000 1.000000
vt 0.000000 1.000000
vt 0.000000 0.000000
vt 1.000000 0.000000
vt 1.000000 1.000000
vt 0.000000 1.000000
vt 0.000000 0.000000
vt 1.000000 0.000000
vt 1.000000 1.000000
vt 0.000000 1.000000
vt 0.000000 0.000000
vt 1.000000 0.000000
vt 1.000000 1.000000
vt 0.000000 1.000000
vt 0.000000 0.000000
vt 1.000000 0.000000
vt 1.000000 1.000000
vt 0.000000 1.000000
vn 0.0000 1.0000 0.0000
usemtl None
s off
f 1/1/1 2/2/1 4/3/1 3/4/1
f 5/5/1 6/6/1 8/7/1 7/8/1
f 12/9/1 11/10/1 13/11/1 14/12/1
f 16/13/1 15/14/1 17/15/1 18/16/1
f 14/17/1 16/18/1 26/19/1 25/20/1
f 4/21/1 12/22/1 24/23/1 20/24/1
f 10/25/1 8/26/1 22/27/1 23/28/1
f 6/29/1 3/30/1 19/31/1 21/32/1
f 22/33/1 21/34/1 30/35/1 31/36/1
f 19/37/1 20/38/1 29/39/1 28/40/1
f 26/41/1 27/42/1 36/43/1 35/44/1
f 24/45/1 25/46/1 34/47/1 33/48/1
f 32/49/1 31/50/1 40/51/1 41/52/1
f 30/53/1 28/54/1 37/55/1 39/56/1
f 34/57/1 35/58/1 44/59/1 43/60/1
f 29/61/1 33/62/1 42/63/1 38/64/1
f 44/65/1 45/66/1 53/67/1 52/68/1
f 42/69/1 43/70/1 51/71/1 50/72/1
f 40/73/1 39/74/1 48/75/1 49/76/1
f 37/77/1 38/78/1 47/79/1 46/80/1
f 7/81/1 9/82/1 58/83/1 57/84/1
f 1/1/1 5/85/1 56/86/1 54/87/1
f 15/88/1 13/89/1 60/90/1 61/91/1
f 11/92/1 2/2/1 55/93/1 59/94/1
f 56/95/1 57/96/1 66/97/1 65/98/1
f 55/99/1 54/100/1 63/101/1 64/102/1
f 62/103/1 61/104/1 70/105/1 71/106/1
f 60/107/1 59/108/1 68/109/1 69/110/1
f 66/111/1 67/112/1 76/113/1 75/114/1
f 63/115/1 65/116/1 74/117/1 72/118/1
f 70/119/1 69/120/1 78/121/1 79/122/1
f 68/123/1 64/124/1 73/125/1 77/126/1
