# Blender v2.79 (sub 0) OBJ File: 'Chess_textured.blend'
# www.blender.org
mtllib chessboard_part_white.mtl
o Chessboard_White_Plane.002
v -0.080000 0.000000 0.080000
v 0.000000 0.000000 0.080000
v -0.080000 0.000000 0.000000
v 0.000000 0.000000 0.000000
v -0.160000 0.000000 0.080000
v -0.160000 0.000000 0.000000
v -0.240000 0.000000 0.080000
v -0.240000 0.000000 0.000000
v -0.320000 0.000000 0.080000
v -0.320000 0.000000 0.000000
v 0.080000 0.000000 0.080000
v 0.080000 0.000000 0.000000
v 0.160000 0.000000 0.080000
v 0.160000 0.000000 0.000000
v 0.240000 0.000000 0.080000
v 0.240000 0.000000 0.000000
v 0.320000 0.000000 0.080000
v 0.320000 0.000000 0.000000
v -0.080000 0.000000 -0.080000
v 0.000000 0.000000 -0.080000
v -0.160000 0.000000 -0.080000
v -0.240000 0.000000 -0.080000
v -0.320000 0.000000 -0.080000
v 0.080000 0.000000 -0.080000
v 0.160000 0.000000 -0.080000
v 0.240000 0.000000 -0.080000
v 0.320000 0.000000 -0.080000
v -0.080000 0.000000 -0.160000
v 0.000000 0.000000 -0.160000
v -0.160000 0.000000 -0.160000
v -0.240000 0.000000 -0.160000
v -0.320000 0.000000 -0.160000
v 0.080000 0.000000 -0.160000
v 0.160000 0.000000 -0.160000
v 0.240000 0.000000 -0.160000
v 0.320000 0.000000 -0.160000
v -0.080000 0.000000 -0.240000
v 0.000000 0.000000 -0.240000
v -0.160000 0.000000 -0.240000
v -0.240000 0.000000 -0.240000
v -0.320000 0.000000 -0.240000
v 0.080000 0.000000 -0.240000
v 0.160000 0.000000 -0.240000
v 0.240000 0.000000 -0.240000
v 0.320000 0.000000 -0.240000
v -0.080000 0.000000 -0.320000
v 0.000000 0.000000 -0.320000
v -0.160000 0.000000 -0.320000
v -0.240000 0.000000 -0.320000
v -0.320000 0.000000 -0.320000
v 0.080000 0.000000 -0.320000
v 0.160000 0.000000 -0.320000
v 0.240000 0.000000 -0.320000
v -0.080000 0.000000 0.160000
v 0.000000 0.000000 0.160000
v -0.160000 0.000000 0.160000
v -0.240000 0.000000 0.160000
v -0.320000 0.000000 0.160000
v 0.080000 0.000000 0.160000
v 0.160000 0.000000 0.160000
v 0.240000 0.000000 0.160000
v 0.320000 0.000000 0.160000
v -0.080000 0.000000 0.240000
v 0.000000 0.000000 0.240000
v -0.160000 0.000000 0.240000
v -0.240000 0.000000 0.240000
v -0.320000 0.000000 0.240000
v 0.080000 0.000000 0.240000
v 0.160000 0.000000 0.240000
v 0.240000 0.000000 0.240000
v 0.320000 0.000000 0.240000
v -0.080000 0.000000 0.320000
v 0.000000 0.000000 0.320000
v -0.160000 0.000000 0.320000
v -0.240000 0.000000 0.320000
v 0.080000 0.000000 0.320000
v 0.160000 0.000000 0.320000
v 0.240000 0.000000 0.320000
v 0.320000 0.000000 0.320000
vt 0.000000 0.000000
vt 1.000000 0.000000
vt 1.000000 1.000000
vt 0.000000 1.000000
vt 0.000000 0.000000
vt 1.000000 0.000000
vt 1.000000 1.000000
vt 0.000000 1.000000
vt 0.000000 0.000000
vt 1.000000 0.000000
vt 1.000000 1.000000
vt 0.000000 1.000000
vt 0.000000 0.000000
vt 1.000000 0.000000
vt 1.000000 1.000000
vt 0.000000 1.000000
vt 0.000000 0.000000
vt 1.000000 0.000000
vt 1.000000 1.000000
vt 0.000000 1.000000
vt 0.000000 0.000000
vt 1.000000 0.000000
vt 1.000000 1.000000
vt 0.000000 1.000000
vt 0.000000 0.000000
vt 1.000000 0.000000
vt 1.000000 1.000000
vt 0.000000 1.000000
vt 0.000000 0.000000
vt 1.000000 0.000000
vt 1.000000 1.000000
vt 0.000000 1.000000
vt 0.000000 0.000000
vt 1.000000 0.000000
vt 1.000000 1.000000
vt 0.000000 1.000000
vt 0.000000 0.000000
vt 1.000000 0.000000
vt 1.000000 1.000000
vt 0.000000 1.000000
vt 0.000000 0.000000
vt 1.000000 0.000000
vt 1.000000 1.000000
vt 0.000000 1.000000
vt 0.000000 0.000000
vt 1.000000 0.000000
vt 1.000000 1.000000
vt 0.000000 1.000000
vt 0.000000 0.000000
vt 1.000000 0.000000
vt 1.000000 1.000000
vt 0.000000 1.000000
vt 0.000000 0.000000
vt 1.000000 0.000000
vt 1.000000 1.000000
vt 0.000000 1.000000
vt 0.000000 0.000000
vt 1.000000 0.000000
vt 1.000000 1.000000
vt 0.000000 1.000000
vt 0.000000 0.000000
vt 1.000000 0.000000
vt 1.000000 1.000000
vt 0.000000 1.000000
vt 0.000000 0.000000
vt 1.000000 0.000000
vt 1.000000 1.000000
vt 0.000000 1.000000
vt 0.000000 0.000000
vt 1.000000 0.000000
vt 1.000000 1.000000
vt 0.000000 1.000000
vt 0.000000 0.000000
vt 1.000000 0.000000
vt 1.000000 1.000000
vt 0.000000 1.000000
vt 0.000000 0.000000
vt 1.000000 0.000000
vt 1.000000 1.000000
vt 0.000000 1.000000
vt 0.000000 0.000000
vt 1.000000 0.000000
vt 1.000000 1.000000
vt 0.000000 1.000000
vt 0.000000 0.000000
vt 1.000000 0.000000
vt 1.000000 1.000000
vt 0.000000 1.000000
vt 0.000000 0.000000
vt 1.000000 0.000000
vt 1.000000 1.000000
vt 0.000000 1.000000
vt 0.000000 0.000000
vt 1.000000 0.000000
vt 1.000000 1.000000
vt 0.000000 1.000000
vt 0.000000 0.000000
vt 1.000000 0.000000
vt 1.000000 1.000000
vt 0.000000 1.000000
vt 0.000000 0.000000
vt 1.000000 0.000000
vt 1.000000 1.000000
vt 0.000000 1.000000
vt 0.000000 0.000000
vt 1.000000 0.000000
vt 1.000000 1.000000
vt 0.000000 1.000000
vt 0.000000 0.000000
vt 1.000000 0.000000
vt 1.000000 1.000000
vt 0.000000 1.000000
vt 0.000000 0.000000
vt 1.000000 0.000000
vt 1.000000 1.000000
vt 0.000000 1.000000
vt 0.000000 0.000000
vt 1.000000 0.000000
vt 1.000000 1.000000
vt 0.000000 1.000000
vt 0.000000 0.000000
vt 1.000000 0.000000
vt 1.000000 1.000000
vt 0.000000 1.000000
vt 0.000000 0.000000
vt 1.000000 0.000000
vt 1.000000 1.000000
vt 0.000000 1.000000
vn 0.0000 1.0000 0.0000
usemtl None
s off
f 1/1/1 3/2/1 6/3/1 5/4/1
f 7/5/1 8/6/1 10/7/1 9/8/1
f 4/9/1 2/10/1 11/11/1 12/12/1
f 14/13/1 13/14/1 15/15/1 16/16/1
f 8/17/1 6/18/1 21/19/1 22/20/1
f 3/21/1 4/22/1 20/23/1 19/24/1
f 16/25/1 18/26/1 27/27/1 26/28/1
f 12/29/1 14/30/1 25/31/1 24/32/1
f 25/33/1 26/34/1 35/35/1 34/36/1
f 20/37/1 24/38/1 33/39/1 29/40/1
f 23/41/1 22/42/1 31/43/1 32/44/1
f 21/45/1 19/46/1 28/47/1 30/48/1
f 31/49/1 30/50/1 39/51/1 40/52/1
f 28/53/1 29/54/1 38/55/1 37/56/1
f 35/57/1 36/58/1 45/59/1 44/60/1
f 33/61/1 34/62/1 43/63/1 42/64/1
f 41/65/1 40/66/1 49/67/1 50/68/1
f 39/69/1 37/70/1 46/71/1 48/72/1
f 43/73/1 44/74/1 53/75/1 52/76/1
f 38/77/1 42/78/1 51/79/1 47/80/1
f 13/81/1 11/82/1 59/83/1 60/84/1
f 2/85/1 1/86/1 54/87/1 55/88/1
f 5/89/1 7/90/1 57/91/1 56/92/1
f 17/93/1 15/94/1 61/95/1 62/96/1
f 61/97/1 60/98/1 69/99/1 70/100/1
f 59/101/1 55/102/1 64/103/1 68/104/1
f 57/105/1 58/106/1 67/107/1 66/108/1
f 54/109/1 56/110/1 65/111/1 63/112/1
f 64/113/1 63/114/1 72/115/1 73/116/1
f 71/117/1 70/118/1 78/119/1 79/120/1
f 69/121/1 68/122/1 76/123/1 77/124/1
f 65/125/1 66/126/1 75/127/1 74/128/1
